<svg xmlns="http://www.w3.org/2000/svg" xmlns:xlink="http://www.w3.org/1999/xlink" width="445" zoomAndPan="magnify" viewBox="0 0 333.75 206.249992" height="275" preserveAspectRatio="xMidYMid meet" version="1.0"><defs><g/><clipPath id="c70fb2364c"><path d="M 0.480469 0 L 333.019531 0 L 333.019531 205.503906 L 0.480469 205.503906 Z M 0.480469 0 " clip-rule="nonzero"/></clipPath></defs><g clip-path="url(#c70fb2364c)"><path fill="#ffffff" d="M 0.480469 0 L 333.019531 0 L 333.019531 205.503906 L 0.480469 205.503906 Z M 0.480469 0 " fill-opacity="1" fill-rule="nonzero"/><path fill="#ffffff" d="M 0.480469 0 L 333.019531 0 L 333.019531 205.503906 L 0.480469 205.503906 Z M 0.480469 0 " fill-opacity="1" fill-rule="nonzero"/></g><g fill="#1d1e24" fill-opacity="1"><g transform="translate(35.781188, 115.594257)"><g><path d="M 44.09375 -21.75 C 44.09375 -18.425781 43.625 -15.375 42.6875 -12.59375 C 41.75 -9.820312 40.398438 -7.445312 38.640625 -5.46875 C 36.878906 -3.5 34.734375 -1.96875 32.203125 -0.875 C 29.671875 0.21875 26.796875 0.765625 23.578125 0.765625 C 20.515625 0.765625 17.765625 0.289062 15.328125 -0.65625 C 12.898438 -1.613281 10.835938 -3.015625 9.140625 -4.859375 C 7.453125 -6.710938 6.160156 -9.003906 5.265625 -11.734375 C 4.367188 -14.460938 3.921875 -17.601562 3.921875 -21.15625 C 3.921875 -24.476562 4.390625 -27.507812 5.328125 -30.25 C 6.265625 -33 7.613281 -35.359375 9.375 -37.328125 C 11.144531 -39.304688 13.296875 -40.84375 15.828125 -41.9375 C 18.359375 -43.039062 21.226562 -43.59375 24.4375 -43.59375 C 27.507812 -43.59375 30.257812 -43.113281 32.6875 -42.15625 C 35.125 -41.207031 37.1875 -39.816406 38.875 -37.984375 C 40.5625 -36.148438 41.851562 -33.863281 42.75 -31.125 C 43.644531 -28.394531 44.09375 -25.269531 44.09375 -21.75 Z M 36.5 -21.40625 C 36.5 -24.050781 36.207031 -26.359375 35.625 -28.328125 C 35.050781 -30.304688 34.222656 -31.957031 33.140625 -33.28125 C 32.054688 -34.601562 30.738281 -35.597656 29.1875 -36.265625 C 27.644531 -36.941406 25.921875 -37.28125 24.015625 -37.28125 C 21.796875 -37.28125 19.894531 -36.84375 18.3125 -35.96875 C 16.738281 -35.101562 15.445312 -33.945312 14.4375 -32.5 C 13.425781 -31.050781 12.6875 -29.363281 12.21875 -27.4375 C 11.75 -25.519531 11.515625 -23.507812 11.515625 -21.40625 C 11.515625 -18.757812 11.804688 -16.441406 12.390625 -14.453125 C 12.972656 -12.460938 13.800781 -10.804688 14.875 -9.484375 C 15.957031 -8.160156 17.265625 -7.164062 18.796875 -6.5 C 20.335938 -5.832031 22.078125 -5.5 24.015625 -5.5 C 26.234375 -5.5 28.128906 -5.929688 29.703125 -6.796875 C 31.285156 -7.671875 32.578125 -8.832031 33.578125 -10.28125 C 34.585938 -11.726562 35.328125 -13.410156 35.796875 -15.328125 C 36.265625 -17.242188 36.5 -19.269531 36.5 -21.40625 Z M 36.5 -21.40625 "/></g></g></g><g fill="#1d1e24" fill-opacity="1"><g transform="translate(81.178107, 115.594257)"><g><path d="M 37.65625 -36.765625 C 38.457031 -35.765625 39.078125 -34.601562 39.515625 -33.28125 C 39.953125 -31.957031 40.171875 -30.53125 40.171875 -29 C 40.171875 -26.78125 39.765625 -24.753906 38.953125 -22.921875 C 38.148438 -21.085938 37.007812 -19.515625 35.53125 -18.203125 C 34.050781 -16.898438 32.28125 -15.882812 30.21875 -15.15625 C 28.15625 -14.4375 25.882812 -14.078125 23.40625 -14.078125 C 21.625 -14.078125 19.945312 -14.265625 18.375 -14.640625 C 16.8125 -15.023438 15.578125 -15.503906 14.671875 -16.078125 C 14.128906 -15.285156 13.671875 -14.53125 13.296875 -13.8125 C 12.929688 -13.101562 12.75 -12.3125 12.75 -11.4375 C 12.75 -10.351562 13.265625 -9.453125 14.296875 -8.734375 C 15.335938 -8.023438 16.710938 -7.644531 18.421875 -7.59375 L 29.6875 -7.171875 C 31.8125 -7.109375 33.773438 -6.832031 35.578125 -6.34375 C 37.390625 -5.863281 38.941406 -5.171875 40.234375 -4.265625 C 41.523438 -3.359375 42.535156 -2.234375 43.265625 -0.890625 C 43.992188 0.441406 44.359375 1.988281 44.359375 3.75 C 44.359375 5.65625 43.941406 7.460938 43.109375 9.171875 C 42.285156 10.878906 41.015625 12.378906 39.296875 13.671875 C 37.578125 14.960938 35.394531 15.988281 32.75 16.75 C 30.101562 17.519531 26.960938 17.90625 23.328125 17.90625 C 19.859375 17.90625 16.90625 17.628906 14.46875 17.078125 C 12.039062 16.523438 10.046875 15.757812 8.484375 14.78125 C 6.921875 13.800781 5.785156 12.632812 5.078125 11.28125 C 4.367188 9.925781 4.015625 8.441406 4.015625 6.828125 C 4.015625 4.742188 4.492188 2.921875 5.453125 1.359375 C 6.421875 -0.203125 7.914062 -1.707031 9.9375 -3.15625 C 9.195312 -3.5 8.554688 -3.925781 8.015625 -4.4375 C 7.472656 -4.945312 7.03125 -5.503906 6.6875 -6.109375 C 6.351562 -6.722656 6.097656 -7.367188 5.921875 -8.046875 C 5.753906 -8.734375 5.671875 -9.40625 5.671875 -10.0625 C 5.671875 -11.914062 6.101562 -13.609375 6.96875 -15.140625 C 7.84375 -16.671875 8.875 -18.117188 10.0625 -19.484375 C 9.519531 -20.140625 9.039062 -20.78125 8.625 -21.40625 C 8.21875 -22.03125 7.863281 -22.703125 7.5625 -23.421875 C 7.269531 -24.148438 7.046875 -24.929688 6.890625 -25.765625 C 6.734375 -26.609375 6.65625 -27.570312 6.65625 -28.65625 C 6.65625 -30.875 7.054688 -32.898438 7.859375 -34.734375 C 8.671875 -36.566406 9.8125 -38.132812 11.28125 -39.4375 C 12.75 -40.75 14.507812 -41.769531 16.5625 -42.5 C 18.625 -43.226562 20.90625 -43.59375 23.40625 -43.59375 C 24.457031 -43.59375 25.46875 -43.519531 26.4375 -43.375 C 27.40625 -43.226562 28.257812 -43.039062 29 -42.8125 L 44.53125 -42.8125 L 44.53125 -36.765625 Z M 11.90625 6.1875 C 11.90625 8.207031 12.953125 9.675781 15.046875 10.59375 C 17.148438 11.519531 20.082031 11.984375 23.84375 11.984375 C 26.195312 11.984375 28.175781 11.769531 29.78125 11.34375 C 31.394531 10.914062 32.691406 10.351562 33.671875 9.65625 C 34.648438 8.957031 35.351562 8.160156 35.78125 7.265625 C 36.207031 6.367188 36.421875 5.453125 36.421875 4.515625 C 36.421875 2.785156 35.707031 1.507812 34.28125 0.6875 C 32.863281 -0.132812 30.691406 -0.617188 27.765625 -0.765625 L 16.59375 -1.15625 C 15.65625 -0.53125 14.878906 0.078125 14.265625 0.671875 C 13.648438 1.273438 13.171875 1.878906 12.828125 2.484375 C 12.492188 3.097656 12.253906 3.710938 12.109375 4.328125 C 11.972656 4.941406 11.90625 5.5625 11.90625 6.1875 Z M 14.15625 -28.828125 C 14.15625 -27.460938 14.382812 -26.210938 14.84375 -25.078125 C 15.300781 -23.941406 15.941406 -22.972656 16.765625 -22.171875 C 17.585938 -21.378906 18.554688 -20.757812 19.671875 -20.3125 C 20.796875 -19.875 22.039062 -19.65625 23.40625 -19.65625 C 24.882812 -19.65625 26.203125 -19.90625 27.359375 -20.40625 C 28.515625 -20.90625 29.484375 -21.582031 30.265625 -22.4375 C 31.046875 -23.289062 31.640625 -24.269531 32.046875 -25.375 C 32.460938 -26.476562 32.671875 -27.628906 32.671875 -28.828125 C 32.671875 -30.191406 32.441406 -31.441406 31.984375 -32.578125 C 31.523438 -33.722656 30.882812 -34.691406 30.0625 -35.484375 C 29.238281 -36.273438 28.265625 -36.890625 27.140625 -37.328125 C 26.023438 -37.773438 24.78125 -38 23.40625 -38 C 21.9375 -38 20.625 -37.742188 19.46875 -37.234375 C 18.3125 -36.722656 17.34375 -36.046875 16.5625 -35.203125 C 15.78125 -34.367188 15.179688 -33.394531 14.765625 -32.28125 C 14.359375 -31.175781 14.15625 -30.023438 14.15625 -28.828125 Z M 14.15625 -28.828125 "/></g></g></g><g fill="#1d1e24" fill-opacity="1"><g transform="translate(126.575025, 115.594257)"><g><path d="M 8.578125 -42.8125 L 15.359375 -42.8125 L 15.5625 -34.921875 C 18.09375 -37.972656 20.585938 -40.179688 23.046875 -41.546875 C 25.503906 -42.910156 27.988281 -43.59375 30.5 -43.59375 C 34.925781 -43.59375 38.285156 -42.15625 40.578125 -39.28125 C 42.867188 -36.40625 43.925781 -32.140625 43.75 -26.484375 L 36.25 -26.484375 C 36.332031 -30.234375 35.785156 -32.953125 34.609375 -34.640625 C 33.429688 -36.335938 31.703125 -37.1875 29.421875 -37.1875 C 28.429688 -37.1875 27.429688 -37.007812 26.421875 -36.65625 C 25.410156 -36.300781 24.367188 -35.734375 23.296875 -34.953125 C 22.234375 -34.171875 21.101562 -33.164062 19.90625 -31.9375 C 18.71875 -30.71875 17.441406 -29.242188 16.078125 -27.515625 L 16.078125 0 L 8.578125 0 Z M 8.578125 -42.8125 "/></g></g></g><g fill="#1d1e24" fill-opacity="1"><g transform="translate(171.97195, 115.594257)"><g><path d="M 34.328125 0 L 34.15625 -5.75 C 31.832031 -3.445312 29.46875 -1.785156 27.0625 -0.765625 C 24.65625 0.253906 22.128906 0.765625 19.484375 0.765625 C 17.046875 0.765625 14.957031 0.453125 13.21875 -0.171875 C 11.488281 -0.796875 10.0625 -1.65625 8.9375 -2.75 C 7.8125 -3.84375 6.984375 -5.128906 6.453125 -6.609375 C 5.929688 -8.085938 5.671875 -9.695312 5.671875 -11.4375 C 5.671875 -15.726562 7.269531 -19.085938 10.46875 -21.515625 C 13.664062 -23.941406 18.394531 -25.15625 24.65625 -25.15625 L 33.515625 -25.15625 L 33.515625 -28.921875 C 33.515625 -31.453125 32.703125 -33.476562 31.078125 -35 C 29.460938 -36.519531 26.992188 -37.28125 23.671875 -37.28125 C 21.253906 -37.28125 18.867188 -37.007812 16.515625 -36.46875 C 14.171875 -35.925781 11.75 -35.15625 9.25 -34.15625 L 9.25 -40.859375 C 10.1875 -41.203125 11.226562 -41.535156 12.375 -41.859375 C 13.53125 -42.179688 14.75 -42.472656 16.03125 -42.734375 C 17.3125 -42.992188 18.648438 -43.203125 20.046875 -43.359375 C 21.441406 -43.515625 22.847656 -43.59375 24.265625 -43.59375 C 26.847656 -43.59375 29.175781 -43.304688 31.25 -42.734375 C 33.332031 -42.160156 35.09375 -41.289062 36.53125 -40.125 C 37.96875 -38.96875 39.066406 -37.503906 39.828125 -35.734375 C 40.597656 -33.972656 40.984375 -31.898438 40.984375 -29.515625 L 40.984375 0 Z M 33.515625 -19.484375 L 24.09375 -19.484375 C 22.25 -19.484375 20.65625 -19.296875 19.3125 -18.921875 C 17.976562 -18.554688 16.882812 -18.03125 16.03125 -17.34375 C 15.175781 -16.664062 14.539062 -15.851562 14.125 -14.90625 C 13.71875 -13.957031 13.515625 -12.882812 13.515625 -11.6875 C 13.515625 -10.863281 13.640625 -10.070312 13.890625 -9.3125 C 14.148438 -8.5625 14.566406 -7.894531 15.140625 -7.3125 C 15.710938 -6.726562 16.453125 -6.265625 17.359375 -5.921875 C 18.265625 -5.585938 19.375 -5.421875 20.6875 -5.421875 C 22.394531 -5.421875 24.347656 -5.9375 26.546875 -6.96875 C 28.753906 -8.007812 31.078125 -9.65625 33.515625 -11.90625 Z M 33.515625 -19.484375 "/></g></g></g><g fill="#1d1e24" fill-opacity="1"><g transform="translate(217.368862, 115.594257)"><g><path d="M 37.359375 0 L 37.359375 -30.75 C 37.359375 -32.082031 37.304688 -33.175781 37.203125 -34.03125 C 37.109375 -34.882812 36.953125 -35.5625 36.734375 -36.0625 C 36.523438 -36.5625 36.253906 -36.910156 35.921875 -37.109375 C 35.597656 -37.304688 35.195312 -37.40625 34.71875 -37.40625 C 34.144531 -37.40625 33.613281 -37.234375 33.125 -36.890625 C 32.644531 -36.546875 32.128906 -35.988281 31.578125 -35.21875 C 31.023438 -34.457031 30.414062 -33.441406 29.75 -32.171875 C 29.082031 -30.910156 28.289062 -29.359375 27.375 -27.515625 L 27.375 0 L 20.59375 0 L 20.59375 -29.9375 C 20.59375 -31.5 20.539062 -32.765625 20.4375 -33.734375 C 20.34375 -34.703125 20.1875 -35.457031 19.96875 -36 C 19.757812 -36.539062 19.484375 -36.910156 19.140625 -37.109375 C 18.804688 -37.304688 18.394531 -37.40625 17.90625 -37.40625 C 17.394531 -37.40625 16.910156 -37.257812 16.453125 -36.96875 C 16.003906 -36.6875 15.5 -36.175781 14.9375 -35.4375 C 14.382812 -34.695312 13.765625 -33.6875 13.078125 -32.40625 C 12.398438 -31.132812 11.59375 -29.503906 10.65625 -27.515625 L 10.65625 0 L 3.84375 0 L 3.84375 -42.8125 L 9.515625 -42.8125 L 9.859375 -34.671875 C 10.585938 -36.296875 11.300781 -37.675781 12 -38.8125 C 12.695312 -39.945312 13.414062 -40.863281 14.15625 -41.5625 C 14.894531 -42.257812 15.679688 -42.769531 16.515625 -43.09375 C 17.359375 -43.425781 18.289062 -43.59375 19.3125 -43.59375 C 21.625 -43.59375 23.375 -42.835938 24.5625 -41.328125 C 25.757812 -39.816406 26.359375 -37.484375 26.359375 -34.328125 C 27.035156 -35.804688 27.703125 -37.117188 28.359375 -38.265625 C 29.015625 -39.421875 29.71875 -40.390625 30.46875 -41.171875 C 31.226562 -41.953125 32.0625 -42.550781 32.96875 -42.96875 C 33.875 -43.382812 34.925781 -43.59375 36.125 -43.59375 C 41.5 -43.59375 44.1875 -39.453125 44.1875 -31.171875 L 44.1875 0 Z M 37.359375 0 "/></g></g></g><g fill="#1d1e24" fill-opacity="1"><g transform="translate(262.765775, 115.594257)"><g><path d="M 23.671875 -13.4375 C 24.640625 -13.4375 25.554688 -13.25 26.421875 -12.875 C 27.285156 -12.507812 28.035156 -12 28.671875 -11.34375 C 29.316406 -10.6875 29.820312 -9.925781 30.1875 -9.0625 C 30.5625 -8.195312 30.75 -7.265625 30.75 -6.265625 C 30.75 -5.296875 30.5625 -4.382812 30.1875 -3.53125 C 29.820312 -2.6875 29.316406 -1.941406 28.671875 -1.296875 C 28.035156 -0.660156 27.285156 -0.160156 26.421875 0.203125 C 25.554688 0.578125 24.640625 0.765625 23.671875 0.765625 C 22.671875 0.765625 21.742188 0.578125 20.890625 0.203125 C 20.046875 -0.160156 19.300781 -0.660156 18.65625 -1.296875 C 18.019531 -1.941406 17.515625 -2.6875 17.140625 -3.53125 C 16.773438 -4.382812 16.59375 -5.296875 16.59375 -6.265625 C 16.59375 -7.265625 16.773438 -8.195312 17.140625 -9.0625 C 17.515625 -9.925781 18.019531 -10.6875 18.65625 -11.34375 C 19.300781 -12 20.046875 -12.507812 20.890625 -12.875 C 21.742188 -13.25 22.671875 -13.4375 23.671875 -13.4375 Z M 23.671875 -13.4375 "/></g></g></g></svg>